<svg xmlns="http://www.w3.org/2000/svg" width="960" height="620" viewBox="0 0 960 620">
  <rect width="960" height="620" fill="#f4f6f8"/>
  <rect x="90" y="40" width="780" height="540" rx="16" fill="#ffffff" stroke="#d4dbe3"/>
  <text x="128" y="96" fill="#111827" font-size="28" font-family="Arial, sans-serif" font-weight="700">Источники данных и ставка часа</text>
  <text x="128" y="126" fill="#475569" font-size="17" font-family="Arial, sans-serif">Сводка источников, медианы и принятой ставки</text>
  <line x1="128" y1="146" x2="830" y2="146" stroke="#e2e8f0"/>
  <rect x="128" y="170" width="704" height="42" rx="8" fill="#f1f5f9"/>
  <text x="146" y="196" fill="#334155" font-size="15" font-family="Arial, sans-serif">Источник</text>
  <text x="414" y="196" fill="#334155" font-size="15" font-family="Arial, sans-serif">Ставка, ₽/ч</text>
  <text x="558" y="196" fill="#334155" font-size="15" font-family="Arial, sans-serif">Диапазон</text>
  <text x="694" y="196" fill="#334155" font-size="15" font-family="Arial, sans-serif">Вес</text>
  <rect x="128" y="220" width="704" height="44" rx="8" fill="#ffffff" stroke="#e2e8f0"/>
  <rect x="128" y="270" width="704" height="44" rx="8" fill="#ffffff" stroke="#e2e8f0"/>
  <rect x="128" y="320" width="704" height="44" rx="8" fill="#ffffff" stroke="#e2e8f0"/>
  <text x="146" y="248" fill="#0f172a" font-size="14" font-family="Arial, sans-serif">Прайс поставщика №1</text><text x="424" y="248" fill="#0f172a" font-size="14" font-family="Arial, sans-serif">1450</text><text x="558" y="248" fill="#0f172a" font-size="14" font-family="Arial, sans-serif">1400-1500</text><text x="706" y="248" fill="#0f172a" font-size="14" font-family="Arial, sans-serif">1.0</text>
  <text x="146" y="298" fill="#0f172a" font-size="14" font-family="Arial, sans-serif">Прайс поставщика №2</text><text x="424" y="298" fill="#0f172a" font-size="14" font-family="Arial, sans-serif">1510</text><text x="558" y="298" fill="#0f172a" font-size="14" font-family="Arial, sans-serif">1490-1560</text><text x="706" y="298" fill="#0f172a" font-size="14" font-family="Arial, sans-serif">1.0</text>
  <text x="146" y="348" fill="#0f172a" font-size="14" font-family="Arial, sans-serif">Прайс поставщика №3</text><text x="424" y="348" fill="#0f172a" font-size="14" font-family="Arial, sans-serif">1580</text><text x="558" y="348" fill="#0f172a" font-size="14" font-family="Arial, sans-serif">1520-1610</text><text x="706" y="348" fill="#0f172a" font-size="14" font-family="Arial, sans-serif">1.0</text>
  <rect x="128" y="392" width="340" height="70" rx="10" fill="#f8fafc" stroke="#cbd5e1"/>
  <rect x="492" y="392" width="340" height="70" rx="10" fill="#ecfeff" stroke="#a5f3fc"/>
  <text x="148" y="422" fill="#334155" font-size="15" font-family="Arial, sans-serif">Медиана ставок</text>
  <text x="148" y="446" fill="#0f172a" font-size="22" font-family="Arial, sans-serif" font-weight="700">1510 ₽/ч</text>
  <text x="512" y="422" fill="#155e75" font-size="15" font-family="Arial, sans-serif">Принятая ставка</text>
  <text x="512" y="446" fill="#0f172a" font-size="22" font-family="Arial, sans-serif" font-weight="700">1510 ₽/ч</text>
</svg>
