<svg xmlns="http://www.w3.org/2000/svg" width="960" height="620" viewBox="0 0 960 620">
  <rect width="960" height="620" fill="#f4f6f8"/>
  <rect x="120" y="48" width="720" height="524" rx="16" fill="#ffffff" stroke="#d4dbe3"/>
  <text x="156" y="110" fill="#1f2937" font-size="28" font-family="Arial, sans-serif" font-weight="700">Смета № smeta_11 (46)</text>
  <text x="156" y="146" fill="#475569" font-size="18" font-family="Arial, sans-serif">Проверка подлинности документа</text>
  <line x1="156" y1="164" x2="804" y2="164" stroke="#e2e8f0"/>
  <rect x="156" y="196" width="430" height="188" rx="10" fill="#f8fafc" stroke="#e2e8f0"/>
  <text x="178" y="232" fill="#0f172a" font-size="20" font-family="Arial, sans-serif" font-weight="700">Проверка подлинности / QR / Hash</text>
  <text x="178" y="268" fill="#334155" font-size="16" font-family="Arial, sans-serif">Ссылка проверки: verify.prisma-smeta.ru/11-46</text>
  <text x="178" y="296" fill="#334155" font-size="16" font-family="Arial, sans-serif">Hash: 95b7c8f13de3a09f22cf7e31</text>
  <text x="178" y="324" fill="#334155" font-size="16" font-family="Arial, sans-serif">Версия документа: v1.0</text>
  <text x="178" y="352" fill="#334155" font-size="16" font-family="Arial, sans-serif">Статус: Готово для приложения к заключению</text>
  <rect x="624" y="196" width="180" height="180" rx="10" fill="#ffffff" stroke="#cbd5e1"/>
  <g fill="#111827">
    <rect x="642" y="214" width="16" height="16"/><rect x="674" y="214" width="16" height="16"/><rect x="706" y="214" width="16" height="16"/><rect x="738" y="214" width="16" height="16"/>
    <rect x="642" y="246" width="16" height="16"/><rect x="706" y="246" width="16" height="16"/><rect x="770" y="246" width="16" height="16"/>
    <rect x="642" y="278" width="16" height="16"/><rect x="674" y="278" width="16" height="16"/><rect x="738" y="278" width="16" height="16"/><rect x="770" y="278" width="16" height="16"/>
    <rect x="674" y="310" width="16" height="16"/><rect x="706" y="310" width="16" height="16"/><rect x="770" y="310" width="16" height="16"/>
    <rect x="642" y="342" width="16" height="16"/><rect x="706" y="342" width="16" height="16"/><rect x="738" y="342" width="16" height="16"/>
  </g>
  <text x="156" y="434" fill="#64748b" font-size="15" font-family="Arial, sans-serif">Страница 1. Превью: проверка, QR и hash.</text>
</svg>
